<?xml version="1.0" encoding="UTF-8" standalone="no"?>
<svg
   viewBox="0 0 64 64"
   width="64"
   height="64"
   version="1.1"
   id="svg4"
   sodipodi:docname="chatbot-icon.svg"
   inkscape:version="1.4 (e7c3feb100, 2024-10-09)"
   xmlns:inkscape="http://www.inkscape.org/namespaces/inkscape"
   xmlns:sodipodi="http://sodipodi.sourceforge.net/DTD/sodipodi-0.dtd"
   xmlns="http://www.w3.org/2000/svg"
   xmlns:svg="http://www.w3.org/2000/svg">
  <defs
     id="defs4" />
  <sodipodi:namedview
     id="namedview4"
     pagecolor="#ffffff"
     bordercolor="#000000"
     borderopacity="0.25"
     inkscape:showpageshadow="2"
     inkscape:pageopacity="0.0"
     inkscape:pagecheckerboard="0"
     inkscape:deskcolor="#d1d1d1"
     showgrid="true"
     inkscape:zoom="4.7232523"
     inkscape:cx="4.9753852"
     inkscape:cy="36.098008"
     inkscape:window-width="1920"
     inkscape:window-height="1058"
     inkscape:window-x="1920"
     inkscape:window-y="0"
     inkscape:window-maximized="1"
     inkscape:current-layer="svg4">
    <inkscape:grid
       id="grid4"
       units="px"
       originx="0"
       originy="0"
       spacingx="1"
       spacingy="1"
       empcolor="#0099e5"
       empopacity="0.30196078"
       color="#0099e5"
       opacity="0.14901961"
       empspacing="5"
       enabled="true"
       visible="true" />
  </sodipodi:namedview>
  <!-- Antenna base (shorter, fatter) -->
  <!-- Message bubble body -->
  <!-- Rounded tail -->
  <!-- Typing dots -->
  <g
     id="g2"
     transform="translate(0,4.1115559)">
    <path
       id="circle1"
       style="stroke-width:1.57556"
       d="M 38,4.6767592 A 5.5,5.5289536 0 0 1 32.5,10.205713 5.5,5.5289536 0 0 1 27,4.6767592 5.5,5.5289536 0 0 1 32.5,-0.85219431 5.5,5.5289536 0 0 1 38,4.6767592 Z" />
    <path
       id="rect1"
       d="m 16,13 h 32 c 5.54,0 10,4.46 10,10 v 16 c 0,5.54 -4.46,10 -10,10 H 16 C 10.46,49 6,44.54 6,39 V 23 C 6,17.46 10.46,13 16,13 Z" />
    <path
       d="m 15,47 c 0,13 -1.599215,12 15,2"
       fill="#000000"
       id="path1"
       sodipodi:nodetypes="cc" />
    <path
       id="circle2"
       style="fill:#ffffff"
       d="m 24.877193,31 a 4,4 0 0 1 -4,4 4,4 0 0 1 -4,-4 4,4 0 0 1 4,-4 4,4 0 0 1 4,4 z" />
    <path
       id="circle3"
       style="fill:#ffffff"
       d="m 36,31 a 4,4 0 0 1 -4,4 4,4 0 0 1 -4,-4 4,4 0 0 1 4,-4 4,4 0 0 1 4,4 z" />
    <path
       id="circle4"
       style="fill:#ffffff"
       d="m 47.122807,31 a 4,4 0 0 1 -4,4 4,4 0 0 1 -4,-4 4,4 0 0 1 4,-4 4,4 0 0 1 4,4 z" />
    <path
       id="rect2"
       d="m 30,5 h 5 v 10 h -5 z" />
  </g>
</svg>
